<svg xmlns="http://www.w3.org/2000/svg" xmlns:xlink="http://www.w3.org/1999/xlink" viewBox="0 0 750 250"><defs><style>.cls-1{fill:#c31230;}.cls-2{fill:#fff;}.cls-3{fill:none;stroke:#000;stroke-miterlimit:10;stroke-width:5px;}</style><symbol id="Block_U" data-name="Block U" viewBox="0 0 185.54 171.6"><path class="cls-1" d="M162.07,158a6.79,6.79,0,1,1-6.74,6.77,6.68,6.68,0,0,1,6.74-6.77Zm0,1.05a5.74,5.74,0,0,0,0,11.47,5.74,5.74,0,0,0,0-11.47Zm-1.26,9.66h-1.21v-7.55a13.6,13.6,0,0,1,2.14-.18,4,4,0,0,1,2.35.57,1.81,1.81,0,0,1,.69,1.56,1.88,1.88,0,0,1-1.47,1.84V165c.66.12,1.11.72,1.26,1.84a6.22,6.22,0,0,0,.48,1.87h-1.27a5.52,5.52,0,0,1-.51-1.93,1.41,1.41,0,0,0-1.63-1.32h-.84Zm0-4.18h.87c1,0,1.83-.37,1.83-1.29,0-.66-.48-1.32-1.83-1.32a6.33,6.33,0,0,0-.87.06Z"/><polygon class="cls-1" points="0 0 0 50.72 16.91 50.72 16.91 135.03 50.72 168.63 134.82 168.63 168.63 135.03 168.63 50.72 185.54 50.72 185.54 0 101.22 0 101.22 50.72 118.14 50.72 118.14 117.91 67.42 117.91 67.42 50.72 84.32 50.72 84.32 0 0 0"/></symbol></defs><title>Logo White</title><g id="Logo_White" data-name="Logo White"><g id="Text-2" data-name="Text"><path class="cls-2" d="M318.32,185.45h9l-2,7.14c4-5.13,9.38-8.25,15.77-8.25l-3.94,10.33a15.84,15.84,0,0,0-3.21-.3c-4.24,0-9.67,1.78-13.1,10.78L314,222.77H303.93Z"/><path class="cls-2" d="M357.3,216.75c-3.58,4.31-7.37,6.84-12.43,6.84-7.14,0-10.35-5.65-8.41-14.94C339.93,192,351,184.41,359.8,184.41c5.05,0,7.53,2.38,8,6.69l3.56-5.65h7.88l-14.39,37.32H355Zm5.17-14.12a30.08,30.08,0,0,0,1.07-3.72c.57-2.75.35-6.32-4.11-6.32-5.72,0-10.36,6.91-11.91,14.35-1.05,5.06.12,8.33,3.84,8.33,4.24,0,8.16-4.91,10.12-10Z"/><path class="cls-2" d="M410.26,214.82C404.43,221.06,398.55,224,391,224c-10.48,0-14.26-6.84-12.43-15.61,2.82-13.53,12.66-24,25.74-24,7.73,0,11.76,3.49,12.51,9.52l-9.22,3.94c0-4-1.86-5.72-5-5.72-7.21,0-11.5,7.36-13.14,15.24-1,4.68-.13,8.85,4.63,8.85,3.79,0,6.86-2.23,9.7-5.87Z"/><path class="cls-2" d="M427.76,185.45h10.11l-14.39,37.32H413.37Zm5.59-14.72h10.11L440.33,179H430.22Z"/><path class="cls-2" d="M447.46,185.45h9L455.07,191c3-3.42,8.31-6.69,13.74-6.69,7,0,9,4.24,7.83,9.89a55.88,55.88,0,0,1-2.42,7.36l-8.13,21.19H456L463.58,203a35.72,35.72,0,0,0,1.51-4.76c.63-3-.28-5.06-3.41-5.06-4.24,0-8.47,3.57-11.51,11.38l-7,18.22H433.07Z"/><path class="cls-2" d="M479,224.33c1.64,2.83,5.28,4.61,9.59,4.61,5.43,0,8.09-3.12,9.88-7.81l1.88-4.76A16.83,16.83,0,0,1,488.17,222c-6.17,0-10.34-4.24-8.33-13.9,2.91-14,12.08-23.72,22.86-23.72,5.2,0,7.82,2.45,8.11,6.77l3.57-5.72h8l-13.62,35.39c-3.46,9.14-9.69,15.84-21.81,15.84-8.55,0-13.58-2.6-15.88-5.13Zm26.21-20.52a39.57,39.57,0,0,0,1.42-4.68c.5-2.38.44-6.39-4.09-6.39-5.28,0-9.93,5.58-11.68,14-.94,4.53.11,7.66,3.76,7.66,4.46,0,8.14-4.09,10.3-9.81Z"/><path class="cls-2" d="M82.78,114.86H59l-1.91,13H79.38l-1.49,9.81H55.62L51.8,163.46H38l8.7-58.4H84.26Z"/><path class="cls-2" d="M157.89,111.27a24.26,24.26,0,0,1,9.34,19.44,32.61,32.61,0,0,1-11.35,24.52c-5.62,4.81-15.17,9.54-29.49,9.54-13.9,0-21.86-4.64-26-8.14A25.52,25.52,0,0,1,91,137.28a31.3,31.3,0,0,1,12.2-24.34c7.43-5.78,18.46-9.19,30.13-9.19C143.46,103.74,152.26,106.81,157.89,111.27Zm-13.37,37.39a22.4,22.4,0,0,0,8.38-17.07,16,16,0,0,0-5.62-12.34c-3.08-2.63-8.38-5.08-16.13-5.08a28.29,28.29,0,0,0-17.61,5.6,20.87,20.87,0,0,0-8.17,16.63A16.26,16.26,0,0,0,111,149.1c3.82,3.33,9.55,5.34,16.13,5.34A27.7,27.7,0,0,0,144.52,148.66Z"/><path class="cls-2" d="M207.43,105.06c5.41,0,12.41.61,17.61,5.08a14.19,14.19,0,0,1,5,11.21,15.86,15.86,0,0,1-5.83,12.61c-3.18,2.54-8.38,4.46-13,5.08l18,24.43H212.63L197.24,140h-1.7L192,163.46H178.25l8.7-58.4Zm-10.72,26.88h4.88c3.71,0,8.38-.88,11-3.06a8.39,8.39,0,0,0,3.08-6.65,6.62,6.62,0,0,0-2.86-5.69c-1.7-1.23-4.56-2.19-9.12-2.19h-4.35Z"/><path class="cls-2" d="M260.26,105.06h10l13.16,37.12,25.25-37.12h10l3.08,58.4H307.9l-1.06-36-24.61,36H278l-12.94-36-12.52,36H238.3Z"/><path class="cls-2" d="M359.14,105.06l-4.77,32.31c-.21,1.75-.74,5.34-.74,6.48a10.08,10.08,0,0,0,3.61,7.88c2.44,1.84,6.26,2.71,9.65,2.71a19.47,19.47,0,0,0,10-2.45c5.09-3.15,5.73-8.23,6.58-13.92l5-33h13.79l-5.09,34.23c-1.06,6.83-2.12,14.1-8.38,19.35-6.68,5.6-15.91,6.13-22,6.13-6.58,0-15.07-.87-21-5.87-4.67-3.94-5.83-8.76-5.83-13.48a91.72,91.72,0,0,1,1-9.89l4.46-30.47Z"/><path class="cls-2" d="M434.78,105.06l-7.21,48.59h21.86l-1.49,9.81H412.29l8.7-58.4Z"/><path class="cls-2" d="M506.28,151.2H477.74l-8.06,12.26H454.4L494,105.06h10.4l20.9,58.4H510.74Zm-2.65-9.28-6.79-21-13.37,21Z"/></g><g id="U-2" data-name="U"><use width="185.54" height="171.6" transform="translate(546.97 54.01)" xlink:href="#Block_U"/></g><g id="Needle-2" data-name="Needle"><polyline class="cls-1" points="118.38 129.15 195.58 50.67 139.59 133.29"/><path class="cls-2" d="M137.35,138.56a10.48,10.48,0,1,1-5.3-13.84,10.48,10.48,0,0,1,5.3,13.84"/><circle class="cls-3" cx="127.78" cy="134.29" r="11.34"/></g><g id="Indicator-2" data-name="Indicator"><path class="cls-1" d="M231,75.88l-2.21-5.29L227.69,68l-.29-.68-.31-.53-.63-1.09c-.85-1.49-1.74-3.11-2.62-4.76l-3.45-4.85a24.52,24.52,0,0,0-1.64-2.22L217.11,52l-3.44-3.86,11.88-13.37,4.73,4.15,2.31,2c.84.69,1.56,1.6,2.4,2.45l5.12,5.5c1.64,2.16,3.27,4.37,4.78,6.45L246,56.9l.54.75.39.65,1.43,2.38,3,4.91Z"/><path class="cls-1" d="M211.6,46.08l-4.37-3.7-2.12-1.79c-.76-.66-1.47-1.07-2.26-1.65L198,35.46l-5.41-3.2c-.88-.49-1.68-1.06-2.52-1.43l-2.35-1.12-4.87-2.33L187.39,15l5.71,2,2.77,1c1,.31,2,.83,3,1.27l6.57,2.9,6.56,3.6c1,.58,2.15,1.15,2.94,1.69L217.29,29l4.78,3.16Z"/><path class="cls-2" d="M179.64,26.17l-5.48-1.64-2.65-.82c-1-.32-1.83-.43-2.81-.67l-6-1.36-6.28-1c-1-.13-2-.36-2.9-.4l-2.61-.19-5.4-.4,0-11.84,6,.12,2.92.07c1,0,2.12.18,3.25.27l7.05.75,7.14,1.38c1.11.24,2.3.41,3.22.69l2.67.73,5.5,1.55Z"/><path class="cls-2" d="M142.28,19.68l-5.72.25-2.77.09-2.82.34c-2,.28-4,.35-6.16.82l-6.24,1.28c-1,.22-1.91.56-2.81.81l-2.51.76-2.13.64-.83.25-.78.29-1.47.55-3.49-8.42L106,16.7l.75-.35c.4-.18.64-.25,1-.4l2.3-.88,2.72-1c1-.35,2-.8,3.06-1.12L122.63,11c2.31-.68,4.81-1,7.07-1.46L133,8.91l2.76-.29,5.69-.56Z"/><path class="cls-2" d="M105.1,27,100,29.48l-2.49,1.23A23,23,0,0,0,95,32.21l-5.33,3.35-5.1,4c-.8.66-1.65,1.21-2.32,1.88l-1.95,1.85L76.2,47.07l-4.06-3.54L76,39.08l1.89-2.15c.66-.78,1.49-1.45,2.28-2.24l5.09-4.78,5.69-4.35a29.78,29.78,0,0,1,2.64-1.91L96,22.21l4.88-3Z"/><path class="cls-2" d="M73.81,49.59,70.15,54l-1.77,2.13c-.65.75-1.15,1.6-1.77,2.45L62.83,64l-3.42,5.71c-.53.93-1.13,1.78-1.54,2.67L56.64,74.8l-2.58,5.11-.41-.16,1.85-5.44.91-2.64c.29-1,.78-1.88,1.19-2.88l2.71-6.25,3.28-6c.54-1,1-1.95,1.56-2.76l1.52-2.32,3.15-4.79Z"/></g><g id="Stripes-2" data-name="Stripes"><polygon class="cls-1" points="303.2 189.32 29.94 189.32 33.96 179.89 307.13 179.71 303.2 189.32"/><polygon class="cls-1" points="296.91 206.24 23.65 206.24 27.66 196.8 300.84 196.62 296.91 206.24"/><polygon class="cls-1" points="290.75 223.15 17.49 223.15 21.5 213.72 294.68 213.54 290.75 223.15"/></g></g></svg>